<svg width="1512" height="12" viewBox="0 0 1512 12" fill="none" xmlns="http://www.w3.org/2000/svg">
<path d="M156 8.86957L158.343 5.83492C160.601 2.91014 165.055 2.99237 167.248 5.96568V5.96568C169.447 8.94583 173.928 8.98015 176.127 6V6C178.325 3.01985 182.781 3.01985 184.98 6V6C187.178 8.98015 191.634 8.98015 193.833 6V6C196.031 3.01985 200.487 3.01985 202.686 6V6C204.884 8.98015 209.34 8.98015 211.539 6V6C213.737 3.01985 218.193 3.01985 220.392 6V6C222.59 8.98015 227.046 8.98015 229.245 6V6C231.443 3.01985 235.899 3.01985 238.098 6V6C240.296 8.98015 244.752 8.98015 246.951 6V6C249.149 3.01985 253.605 3.01985 255.804 6V6C258.002 8.98015 262.458 8.98015 264.657 6V6C266.855 3.01985 271.311 3.01985 273.51 6V6C275.708 8.98015 280.164 8.98015 282.363 6V6C284.561 3.01985 289.017 3.01985 291.216 6V6C293.414 8.98015 297.87 8.98015 300.069 6V6C302.267 3.01985 306.723 3.01986 308.922 6V6C311.12 8.98014 315.576 8.98014 317.775 6V6C319.973 3.01985 324.429 3.01986 326.628 6V6C328.826 8.98014 333.282 8.98015 335.481 6V6C337.679 3.01985 342.135 3.01985 344.334 6V6C346.532 8.98015 350.988 8.98015 353.187 6V6C355.385 3.01985 359.841 3.01986 362.04 6V6C364.238 8.98014 368.694 8.98015 370.893 6V6C373.091 3.01986 377.547 3.01986 379.746 6V6C381.944 8.98014 386.4 8.98015 388.599 6V6C390.797 3.01985 395.253 3.01986 397.452 6V6C399.65 8.98015 404.106 8.98015 406.305 6.00001V6.00001C408.503 3.01986 412.959 3.01986 415.158 6.00001V6.00001C417.356 8.98016 421.812 8.98013 424.011 5.99999V5.99999C426.209 3.01986 430.665 3.01985 432.864 5.99999V5.99999C435.062 8.98014 439.518 8.98014 441.717 5.99999V5.99999C443.915 3.01985 448.371 3.01986 450.57 5.99999V5.99999C452.768 8.98014 457.224 8.98015 459.423 6V6C461.621 3.01986 466.077 3.01986 468.276 6V6C470.474 8.98015 474.93 8.98014 477.129 6V6C479.327 3.01986 483.783 3.01985 485.982 5.99999V5.99999C488.18 8.98014 492.636 8.98014 494.835 5.99999V5.99999C497.033 3.01985 501.489 3.01986 503.688 6V6C505.886 8.98014 510.342 8.98015 512.541 6V6C514.739 3.01986 519.195 3.01986 521.394 6V6C523.592 8.98015 528.048 8.98014 530.247 6V6C532.445 3.01985 536.901 3.01986 539.1 6V6C541.298 8.98014 545.754 8.98014 547.953 5.99999V5.99999C550.151 3.01985 554.607 3.01987 556.806 6V6C559.004 8.98013 563.46 8.98015 565.659 6.00001V6.00001C567.857 3.01986 572.313 3.01986 574.512 6V6C576.71 8.98015 581.166 8.98015 583.365 6V6C585.563 3.01985 590.019 3.01985 592.218 6V6C594.416 8.98015 598.872 8.98015 601.071 6V6C603.269 3.01985 607.725 3.01986 609.924 6V6C612.122 8.98015 616.578 8.98014 618.777 6V6C620.975 3.01986 625.431 3.01985 627.63 5.99999V5.99999C629.828 8.98014 634.284 8.98014 636.483 5.99999V5.99999C638.681 3.01986 643.137 3.01985 645.336 5.99999V5.99999C647.534 8.98014 651.99 8.98014 654.189 6V6C656.387 3.01985 660.843 3.01985 663.042 5.99999V5.99999C665.24 8.98014 669.696 8.98015 671.895 6V6C674.093 3.01985 678.549 3.01986 680.748 6.00001V6.00001C682.946 8.98014 687.402 8.98015 689.601 6.00001V6.00001C691.799 3.01986 696.255 3.01986 698.454 6.00001V6.00001C700.652 8.98015 705.108 8.98014 707.307 6.00001V6.00001C709.505 3.01986 713.961 3.01986 716.16 6V6C718.358 8.98014 722.814 8.98015 725.013 6V6C727.211 3.01985 731.667 3.01986 733.866 5.99999V5.99999C736.064 8.98014 740.52 8.98014 742.719 5.99999V5.99999C744.917 3.01984 749.373 3.01988 751.572 6.00001V6.00001C753.77 8.98013 758.226 8.98015 760.425 6.00001V6.00001C762.623 3.01988 767.079 3.01987 769.278 6.00001V6.00001C771.476 8.98015 775.932 8.98013 778.131 6.00001V6.00001C780.329 3.01986 784.785 3.01987 786.984 6V6C789.182 8.98013 793.638 8.98016 795.837 6.00002V6.00002C798.035 3.01987 802.491 3.01987 804.69 6.00002V6.00002C806.888 8.98016 811.344 8.98012 813.543 6V6C815.741 3.01988 820.197 3.01985 822.396 5.99999V5.99999C824.594 8.98014 829.05 8.98013 831.249 6V6C833.447 3.01986 837.903 3.01985 840.102 6V6C842.3 8.98015 846.756 8.98014 848.955 6V6C851.153 3.01986 855.609 3.01985 857.808 6V6C860.006 8.98015 864.462 8.98014 866.661 5.99999V5.99999C868.859 3.01986 873.315 3.01985 875.514 5.99999V5.99999C877.712 8.98014 882.168 8.98014 884.367 5.99999V5.99999C886.565 3.01985 891.021 3.01986 893.22 5.99999V5.99999C895.418 8.98013 899.874 8.98015 902.073 6V6C904.271 3.01985 908.727 3.01986 910.926 6V6C913.124 8.98014 917.58 8.98015 919.779 6V6C921.977 3.01986 926.433 3.01986 928.632 6.00001V6.00001C930.83 8.98016 935.286 8.98013 937.485 5.99999V5.99999C939.683 3.01987 944.139 3.01985 946.338 5.99999V5.99999C948.536 8.98013 952.992 8.98014 955.191 6V6C957.389 3.01986 961.845 3.01986 964.044 6.00001V6.00001C966.242 8.98015 970.698 8.98014 972.897 6V6C975.095 3.01987 979.551 3.01985 981.75 6V6C983.948 8.98015 988.404 8.98014 990.603 6V6C992.801 3.01985 997.257 3.01987 999.456 6.00001V6.00001C1001.65 8.98013 1006.11 8.98015 1008.31 6V6C1010.51 3.01985 1014.96 3.01988 1017.16 6.00001V6.00001C1019.36 8.98013 1023.82 8.98015 1026.01 6.00001V6.00001C1028.21 3.01988 1032.67 3.01987 1034.87 6.00001V6.00001C1037.07 8.98015 1041.52 8.98013 1043.72 6.00001V6.00001C1045.92 3.01986 1050.38 3.01987 1052.57 6V6C1054.77 8.98013 1059.23 8.98016 1061.43 6.00002V6.00002C1063.63 3.01987 1068.08 3.01987 1070.28 6.00002V6.00002C1072.48 8.98016 1076.93 8.98013 1079.13 6V6C1081.33 3.01987 1085.79 3.01985 1087.99 5.99999V5.99999C1090.18 8.98013 1094.64 8.98014 1096.84 6V6C1099.04 3.01986 1103.49 3.01986 1105.69 6.00001V6.00001C1107.89 8.98015 1112.35 8.98014 1114.54 6.00001V6.00001C1116.74 3.01986 1121.2 3.01985 1123.4 6V6C1125.6 8.98015 1130.05 8.98014 1132.25 5.99999V5.99999C1134.45 3.01986 1138.91 3.01985 1141.1 5.99999V5.99999C1143.3 8.98014 1147.76 8.98014 1149.96 5.99999V5.99999C1152.16 3.01985 1156.61 3.01985 1158.81 5.99999V5.99999C1161.01 8.98013 1165.46 8.98014 1167.66 5.99998V5.99998C1169.86 3.01984 1174.32 3.01989 1176.52 6.00001V6.00001C1178.71 8.98011 1183.17 8.98014 1185.37 6V6C1187.57 3.01986 1192.02 3.0199 1194.22 6V6C1196.42 8.98012 1200.88 8.98015 1203.07 6.00002V6.00002C1205.27 3.01989 1209.73 3.01989 1211.93 6.00004V6.00004C1214.13 8.98017 1218.58 8.98008 1220.78 6V6C1222.98 3.01992 1227.44 3.01982 1229.63 5.99995V5.99995C1231.83 8.9801 1236.29 8.98011 1238.49 5.99996V5.99996C1240.69 3.01983 1245.14 3.01989 1247.34 5.99999V5.99999C1249.54 8.9801 1253.99 8.98016 1256.19 6.00002V6.00002C1258.39 3.01987 1262.85 3.01987 1265.05 6V6C1267.24 8.98015 1271.7 8.98014 1273.9 5.99999V5.99999C1276.1 3.01987 1280.55 3.01986 1282.75 6V6C1284.95 8.98014 1289.41 8.98012 1291.6 6V6C1293.8 3.01986 1298.26 3.01989 1300.46 6.00002V6.00002C1302.66 8.98012 1307.11 8.98017 1309.31 6.00004V6.00004C1311.51 3.01989 1315.97 3.01989 1318.16 6.00004V6.00004C1320.36 8.98017 1324.82 8.9801 1327.02 6V6C1329.22 3.0199 1333.67 3.01983 1335.87 5.99996V5.99996C1338.07 8.98011 1342.52 8.98011 1344.72 5.99996L1344.91 5.7412C1347.09 2.79204 1351.43 2.61066 1353.85 5.36824L1356 7.82609" stroke="#EBDFFF"/>
</svg>
